<svg xmlns="http://www.w3.org/2000/svg" xml:space="preserve" viewBox="0 0 972 972"><path d="M132 24h12v12h-12zM168 24h12v12h-12zM228 24h12v12h-12zM264 24h12v12h-12zM288 24h12v12h-12zM324 24h12v12h-12zM348 24h12v12h-12zM360 24h12v12h-12zM372 24h12v12h-12zM384 24h12v12h-12zM396 24h12v12h-12zM408 24h12v12h-12zM432 24h12v12h-12zM444 24h12v12h-12zM456 24h12v12h-12zM516 24h12v12h-12zM528 24h12v12h-12zM540 24h12v12h-12zM564 24h12v12h-12zM576 24h12v12h-12zM588 24h12v12h-12zM600 24h12v12h-12zM612 24h12v12h-12zM624 24h12v12h-12zM636 24h12v12h-12zM672 24h12v12h-12zM696 24h12v12h-12zM708 24h12v12h-12zM720 24h12v12h-12zM732 24h12v12h-12zM756 24h12v12h-12zM768 24h12v12h-12zM780 24h12v12h-12zM792 24h12v12h-12zM180 36h12v12h-12zM192 36h12v12h-12zM216 36h12v12h-12zM252 36h12v12h-12zM276 36h12v12h-12zM312 36h12v12h-12zM324 36h12v12h-12zM336 36h12v12h-12zM384 36h12v12h-12zM420 36h12v12h-12zM468 36h12v12h-12zM492 36h12v12h-12zM516 36h12v12h-12zM588 36h12v12h-12zM624 36h12v12h-12zM684 36h12v12h-12zM720 36h12v12h-12zM732 36h12v12h-12zM768 36h12v12h-12zM804 36h12v12h-12zM816 36h12v12h-12zM840 36h12v12h-12zM120 48h12v12h-12zM132 48h12v12h-12zM144 48h12v12h-12zM156 48h12v12h-12zM168 48h12v12h-12zM192 48h12v12h-12zM216 48h12v12h-12zM252 48h12v12h-12zM264 48h12v12h-12zM276 48h12v12h-12zM288 48h12v12h-12zM312 48h12v12h-12zM336 48h12v12h-12zM360 48h12v12h-12zM372 48h12v12h-12zM396 48h12v12h-12zM456 48h12v12h-12zM480 48h12v12h-12zM492 48h12v12h-12zM504 48h12v12h-12zM516 48h12v12h-12zM528 48h12v12h-12zM540 48h12v12h-12zM600 48h12v12h-12zM636 48h12v12h-12zM672 48h12v12h-12zM684 48h12v12h-12zM720 48h12v12h-12zM756 48h12v12h-12zM768 48h12v12h-12zM780 48h12v12h-12zM840 48h12v12h-12zM120 60h12v12h-12zM132 60h12v12h-12zM156 60h12v12h-12zM192 60h12v12h-12zM204 60h12v12h-12zM240 60h12v12h-12zM252 60h12v12h-12zM324 60h12v12h-12zM336 60h12v12h-12zM348 60h12v12h-12zM360 60h12v12h-12zM372 60h12v12h-12zM384 60h12v12h-12zM396 60h12v12h-12zM420 60h12v12h-12zM432 60h12v12h-12zM468 60h12v12h-12zM480 60h12v12h-12zM492 60h12v12h-12zM528 60h12v12h-12zM540 60h12v12h-12zM564 60h12v12h-12zM588 60h12v12h-12zM600 60h12v12h-12zM612 60h12v12h-12zM624 60h12v12h-12zM636 60h12v12h-12zM744 60h12v12h-12zM780 60h12v12h-12zM840 60h12v12h-12zM120 72h12v12h-12zM132 72h12v12h-12zM168 72h12v12h-12zM180 72h12v12h-12zM204 72h12v12h-12zM228 72h12v12h-12zM252 72h12v12h-12zM312 72h12v12h-12zM324 72h12v12h-12zM336 72h12v12h-12zM348 72h12v12h-12zM360 72h12v12h-12zM408 72h12v12h-12zM420 72h12v12h-12zM432 72h12v12h-12zM468 72h12v12h-12zM504 72h12v12h-12zM516 72h12v12h-12zM528 72h12v12h-12zM540 72h12v12h-12zM576 72h12v12h-12zM588 72h12v12h-12zM600 72h12v12h-12zM612 72h12v12h-12zM624 72h12v12h-12zM636 72h12v12h-12zM672 72h12v12h-12zM696 72h12v12h-12zM720 72h12v12h-12zM756 72h12v12h-12zM768 72h12v12h-12zM780 72h12v12h-12zM816 72h12v12h-12zM828 72h12v12h-12zM840 72h12v12h-12zM120 84h12v12h-12zM132 84h12v12h-12zM144 84h12v12h-12zM156 84h12v12h-12zM192 84h12v12h-12zM216 84h12v12h-12zM240 84h12v12h-12zM264 84h12v12h-12zM288 84h12v12h-12zM300 84h12v12h-12zM312 84h12v12h-12zM360 84h12v12h-12zM408 84h12v12h-12zM420 84h12v12h-12zM432 84h12v12h-12zM444 84h12v12h-12zM504 84h12v12h-12zM516 84h12v12h-12zM528 84h12v12h-12zM540 84h12v12h-12zM552 84h12v12h-12zM576 84h12v12h-12zM624 84h12v12h-12zM636 84h12v12h-12zM648 84h12v12h-12zM660 84h12v12h-12zM672 84h12v12h-12zM684 84h12v12h-12zM708 84h12v12h-12zM720 84h12v12h-12zM732 84h12v12h-12zM744 84h12v12h-12zM756 84h12v12h-12zM780 84h12v12h-12zM804 84h12v12h-12zM816 84h12v12h-12zM120 96h12v12h-12zM144 96h12v12h-12zM168 96h12v12h-12zM192 96h12v12h-12zM216 96h12v12h-12zM240 96h12v12h-12zM264 96h12v12h-12zM288 96h12v12h-12zM312 96h12v12h-12zM336 96h12v12h-12zM360 96h12v12h-12zM384 96h12v12h-12zM408 96h12v12h-12zM432 96h12v12h-12zM456 96h12v12h-12zM480 96h12v12h-12zM504 96h12v12h-12zM528 96h12v12h-12zM552 96h12v12h-12zM576 96h12v12h-12zM600 96h12v12h-12zM624 96h12v12h-12zM648 96h12v12h-12zM672 96h12v12h-12zM696 96h12v12h-12zM720 96h12v12h-12zM744 96h12v12h-12zM768 96h12v12h-12zM792 96h12v12h-12zM816 96h12v12h-12zM840 96h12v12h-12zM120 108h12v12h-12zM264 108h12v12h-12zM276 108h12v12h-12zM300 108h12v12h-12zM312 108h12v12h-12zM360 108h12v12h-12zM396 108h12v12h-12zM420 108h12v12h-12zM444 108h12v12h-12zM456 108h12v12h-12zM480 108h12v12h-12zM492 108h12v12h-12zM564 108h12v12h-12zM576 108h12v12h-12zM624 108h12v12h-12zM636 108h12v12h-12zM648 108h12v12h-12zM684 108h12v12h-12zM696 108h12v12h-12zM720 108h12v12h-12zM792 108h12v12h-12zM804 108h12v12h-12zM840 108h12v12h-12zM24 120h12v12H24zM48 120h12v12H48zM60 120h12v12H60zM72 120h12v12H72zM84 120h12v12H84zM96 120h12v12H96zM132 120h12v12h-12zM168 120h12v12h-12zM180 120h12v12h-12zM192 120h12v12h-12zM204 120h12v12h-12zM216 120h12v12h-12zM240 120h12v12h-12zM252 120h12v12h-12zM264 120h12v12h-12zM300 120h12v12h-12zM312 120h12v12h-12zM324 120h12v12h-12zM336 120h12v12h-12zM348 120h12v12h-12zM360 120h12v12h-12zM384 120h12v12h-12zM396 120h12v12h-12zM408 120h12v12h-12zM444 120h12v12h-12zM456 120h12v12h-12zM480 120h12v12h-12zM504 120h12v12h-12zM516 120h12v12h-12zM528 120h12v12h-12zM564 120h12v12h-12zM576 120h12v12h-12zM588 120h12v12h-12zM600 120h12v12h-12zM612 120h12v12h-12zM624 120h12v12h-12zM648 120h12v12h-12zM672 120h12v12h-12zM684 120h12v12h-12zM708 120h12v12h-12zM720 120h12v12h-12zM744 120h12v12h-12zM756 120h12v12h-12zM780 120h12v12h-12zM840 120h12v12h-12zM864 120h12v12h-12zM876 120h12v12h-12zM888 120h12v12h-12zM900 120h12v12h-12zM912 120h12v12h-12zM24 132h12v12H24zM36 132h12v12H36zM48 132h12v12H48zM60 132h12v12H60zM72 132h12v12H72zM84 132h12v12H84zM108 132h12v12h-12zM132 132h12v12h-12zM192 132h12v12h-12zM240 132h12v12h-12zM252 132h12v12h-12zM264 132h12v12h-12zM276 132h12v12h-12zM312 132h12v12h-12zM336 132h12v12h-12zM420 132h12v12h-12zM468 132h12v12h-12zM492 132h12v12h-12zM504 132h12v12h-12zM528 132h12v12h-12zM576 132h12v12h-12zM720 132h12v12h-12zM744 132h12v12h-12zM756 132h12v12h-12zM768 132h12v12h-12zM780 132h12v12h-12zM804 132h12v12h-12zM828 132h12v12h-12zM840 132h12v12h-12zM852 132h12v12h-12zM864 132h12v12h-12zM876 132h12v12h-12zM888 132h12v12h-12zM900 132h12v12h-12zM912 132h12v12h-12zM924 132h12v12h-12zM24 144h12v12H24zM48 144h12v12H48zM60 144h12v12H60zM84 144h12v12H84zM96 144h12v12H96zM108 144h12v12h-12zM132 144h12v12h-12zM168 144h12v12h-12zM180 144h12v12h-12zM204 144h12v12h-12zM216 144h12v12h-12zM276 144h12v12h-12zM288 144h12v12h-12zM300 144h12v12h-12zM312 144h12v12h-12zM324 144h12v12h-12zM348 144h12v12h-12zM468 144h12v12h-12zM480 144h12v12h-12zM504 144h12v12h-12zM516 144h12v12h-12zM564 144h12v12h-12zM576 144h12v12h-12zM600 144h12v12h-12zM624 144h12v12h-12zM660 144h12v12h-12zM684 144h12v12h-12zM708 144h12v12h-12zM720 144h12v12h-12zM732 144h12v12h-12zM744 144h12v12h-12zM756 144h12v12h-12zM792 144h12v12h-12zM828 144h12v12h-12zM852 144h12v12h-12zM864 144h12v12h-12zM876 144h12v12h-12zM888 144h12v12h-12zM900 144h12v12h-12zM936 144h12v12h-12zM48 156h12v12H48zM60 156h12v12H60zM108 156h12v12h-12zM132 156h12v12h-12zM156 156h12v12h-12zM168 156h12v12h-12zM180 156h12v12h-12zM192 156h12v12h-12zM216 156h12v12h-12zM228 156h12v12h-12zM240 156h12v12h-12zM252 156h12v12h-12zM276 156h12v12h-12zM288 156h12v12h-12zM360 156h12v12h-12zM396 156h12v12h-12zM408 156h12v12h-12zM444 156h12v12h-12zM456 156h12v12h-12zM528 156h12v12h-12zM600 156h12v12h-12zM612 156h12v12h-12zM636 156h12v12h-12zM648 156h12v12h-12zM696 156h12v12h-12zM804 156h12v12h-12zM816 156h12v12h-12zM840 156h12v12h-12zM852 156h12v12h-12zM888 156h12v12h-12zM912 156h12v12h-12zM924 156h12v12h-12zM936 156h12v12h-12zM24 168h12v12H24zM36 168h12v12H36zM60 168h12v12H60zM96 168h12v12H96zM120 168h12v12h-12zM156 168h12v12h-12zM168 168h12v12h-12zM180 168h12v12h-12zM192 168h12v12h-12zM204 168h12v12h-12zM216 168h12v12h-12zM228 168h12v12h-12zM252 168h12v12h-12zM276 168h12v12h-12zM300 168h12v12h-12zM312 168h12v12h-12zM336 168h12v12h-12zM360 168h12v12h-12zM372 168h12v12h-12zM396 168h12v12h-12zM408 168h12v12h-12zM420 168h12v12h-12zM504 168h12v12h-12zM528 168h12v12h-12zM540 168h12v12h-12zM564 168h12v12h-12zM576 168h12v12h-12zM588 168h12v12h-12zM600 168h12v12h-12zM636 168h12v12h-12zM660 168h12v12h-12zM708 168h12v12h-12zM720 168h12v12h-12zM732 168h12v12h-12zM744 168h12v12h-12zM780 168h12v12h-12zM792 168h12v12h-12zM804 168h12v12h-12zM816 168h12v12h-12zM828 168h12v12h-12zM852 168h12v12h-12zM864 168h12v12h-12zM876 168h12v12h-12zM912 168h12v12h-12zM924 168h12v12h-12zM936 168h12v12h-12zM24 180h12v12H24zM60 180h12v12H60zM72 180h12v12H72zM144 180h12v12h-12zM156 180h12v12h-12zM168 180h12v12h-12zM204 180h12v12h-12zM228 180h12v12h-12zM252 180h12v12h-12zM300 180h12v12h-12zM312 180h12v12h-12zM336 180h12v12h-12zM384 180h12v12h-12zM420 180h12v12h-12zM444 180h12v12h-12zM456 180h12v12h-12zM468 180h12v12h-12zM480 180h12v12h-12zM492 180h12v12h-12zM528 180h12v12h-12zM552 180h12v12h-12zM600 180h12v12h-12zM612 180h12v12h-12zM624 180h12v12h-12zM636 180h12v12h-12zM672 180h12v12h-12zM684 180h12v12h-12zM708 180h12v12h-12zM720 180h12v12h-12zM732 180h12v12h-12zM756 180h12v12h-12zM768 180h12v12h-12zM780 180h12v12h-12zM804 180h12v12h-12zM840 180h12v12h-12zM852 180h12v12h-12zM888 180h12v12h-12zM900 180h12v12h-12zM912 180h12v12h-12zM924 180h12v12h-12zM936 180h12v12h-12zM36 192h12v12H36zM60 192h12v12H60zM72 192h12v12H72zM96 192h12v12H96zM108 192h12v12h-12zM120 192h12v12h-12zM132 192h12v12h-12zM156 192h12v12h-12zM180 192h12v12h-12zM204 192h12v12h-12zM240 192h12v12h-12zM252 192h12v12h-12zM264 192h12v12h-12zM288 192h12v12h-12zM300 192h12v12h-12zM324 192h12v12h-12zM336 192h12v12h-12zM384 192h12v12h-12zM432 192h12v12h-12zM456 192h12v12h-12zM468 192h12v12h-12zM480 192h12v12h-12zM492 192h12v12h-12zM528 192h12v12h-12zM540 192h12v12h-12zM576 192h12v12h-12zM612 192h12v12h-12zM636 192h12v12h-12zM672 192h12v12h-12zM732 192h12v12h-12zM744 192h12v12h-12zM756 192h12v12h-12zM780 192h12v12h-12zM804 192h12v12h-12zM840 192h12v12h-12zM852 192h12v12h-12zM864 192h12v12h-12zM24 204h12v12H24zM36 204h12v12H36zM48 204h12v12H48zM72 204h12v12H72zM132 204h12v12h-12zM144 204h12v12h-12zM168 204h12v12h-12zM180 204h12v12h-12zM204 204h12v12h-12zM228 204h12v12h-12zM252 204h12v12h-12zM264 204h12v12h-12zM276 204h12v12h-12zM288 204h12v12h-12zM312 204h12v12h-12zM324 204h12v12h-12zM348 204h12v12h-12zM384 204h12v12h-12zM420 204h12v12h-12zM468 204h12v12h-12zM492 204h12v12h-12zM552 204h12v12h-12zM564 204h12v12h-12zM636 204h12v12h-12zM648 204h12v12h-12zM660 204h12v12h-12zM684 204h12v12h-12zM696 204h12v12h-12zM720 204h12v12h-12zM732 204h12v12h-12zM756 204h12v12h-12zM768 204h12v12h-12zM780 204h12v12h-12zM804 204h12v12h-12zM816 204h12v12h-12zM840 204h12v12h-12zM852 204h12v12h-12zM888 204h12v12h-12zM900 204h12v12h-12zM912 204h12v12h-12zM924 204h12v12h-12zM936 204h12v12h-12zM24 216h12v12H24zM48 216h12v12H48zM60 216h12v12H60zM84 216h12v12H84zM96 216h12v12H96zM120 216h12v12h-12zM132 216h12v12h-12zM144 216h12v12h-12zM156 216h12v12h-12zM204 216h12v12h-12zM228 216h12v12h-12zM240 216h12v12h-12zM252 216h12v12h-12zM300 216h12v12h-12zM324 216h12v12h-12zM348 216h12v12h-12zM360 216h12v12h-12zM372 216h12v12h-12zM384 216h12v12h-12zM396 216h12v12h-12zM420 216h12v12h-12zM432 216h12v12h-12zM468 216h12v12h-12zM504 216h12v12h-12zM516 216h12v12h-12zM576 216h12v12h-12zM624 216h12v12h-12zM648 216h12v12h-12zM672 216h12v12h-12zM696 216h12v12h-12zM732 216h12v12h-12zM744 216h12v12h-12zM756 216h12v12h-12zM816 216h12v12h-12zM840 216h12v12h-12zM924 216h12v12h-12zM24 228h12v12H24zM48 228h12v12H48zM72 228h12v12H72zM108 228h12v12h-12zM120 228h12v12h-12zM144 228h12v12h-12zM180 228h12v12h-12zM192 228h12v12h-12zM204 228h12v12h-12zM216 228h12v12h-12zM240 228h12v12h-12zM264 228h12v12h-12zM288 228h12v12h-12zM300 228h12v12h-12zM312 228h12v12h-12zM324 228h12v12h-12zM336 228h12v12h-12zM348 228h12v12h-12zM360 228h12v12h-12zM384 228h12v12h-12zM408 228h12v12h-12zM420 228h12v12h-12zM444 228h12v12h-12zM456 228h12v12h-12zM468 228h12v12h-12zM504 228h12v12h-12zM528 228h12v12h-12zM564 228h12v12h-12zM600 228h12v12h-12zM636 228h12v12h-12zM648 228h12v12h-12zM684 228h12v12h-12zM756 228h12v12h-12zM792 228h12v12h-12zM840 228h12v12h-12zM888 228h12v12h-12zM912 228h12v12h-12zM24 240h12v12H24zM48 240h12v12H48zM60 240h12v12H60zM96 240h12v12H96zM120 240h12v12h-12zM168 240h12v12h-12zM180 240h12v12h-12zM192 240h12v12h-12zM204 240h12v12h-12zM252 240h12v12h-12zM264 240h12v12h-12zM288 240h12v12h-12zM324 240h12v12h-12zM348 240h12v12h-12zM360 240h12v12h-12zM372 240h12v12h-12zM384 240h12v12h-12zM396 240h12v12h-12zM408 240h12v12h-12zM432 240h12v12h-12zM468 240h12v12h-12zM492 240h12v12h-12zM516 240h12v12h-12zM528 240h12v12h-12zM540 240h12v12h-12zM552 240h12v12h-12zM564 240h12v12h-12zM576 240h12v12h-12zM588 240h12v12h-12zM612 240h12v12h-12zM672 240h12v12h-12zM696 240h12v12h-12zM732 240h12v12h-12zM744 240h12v12h-12zM780 240h12v12h-12zM804 240h12v12h-12zM840 240h12v12h-12zM852 240h12v12h-12zM864 240h12v12h-12zM876 240h12v12h-12zM888 240h12v12h-12zM900 240h12v12h-12zM924 240h12v12h-12zM72 252h12v12H72zM84 252h12v12H84zM120 252h12v12h-12zM132 252h12v12h-12zM144 252h12v12h-12zM168 252h12v12h-12zM240 252h12v12h-12zM264 252h12v12h-12zM276 252h12v12h-12zM300 252h12v12h-12zM336 252h12v12h-12zM384 252h12v12h-12zM408 252h12v12h-12zM540 252h12v12h-12zM588 252h12v12h-12zM600 252h12v12h-12zM624 252h12v12h-12zM636 252h12v12h-12zM672 252h12v12h-12zM684 252h12v12h-12zM708 252h12v12h-12zM744 252h12v12h-12zM756 252h12v12h-12zM792 252h12v12h-12zM804 252h12v12h-12zM816 252h12v12h-12zM852 252h12v12h-12zM864 252h12v12h-12zM876 252h12v12h-12zM24 264h12v12H24zM60 264h12v12H60zM72 264h12v12H72zM84 264h12v12H84zM96 264h12v12H96zM108 264h12v12h-12zM120 264h12v12h-12zM132 264h12v12h-12zM156 264h12v12h-12zM180 264h12v12h-12zM204 264h12v12h-12zM216 264h12v12h-12zM228 264h12v12h-12zM252 264h12v12h-12zM288 264h12v12h-12zM312 264h12v12h-12zM336 264h12v12h-12zM396 264h12v12h-12zM432 264h12v12h-12zM456 264h12v12h-12zM480 264h12v12h-12zM516 264h12v12h-12zM528 264h12v12h-12zM576 264h12v12h-12zM600 264h12v12h-12zM612 264h12v12h-12zM636 264h12v12h-12zM648 264h12v12h-12zM696 264h12v12h-12zM708 264h12v12h-12zM756 264h12v12h-12zM768 264h12v12h-12zM804 264h12v12h-12zM816 264h12v12h-12zM828 264h12v12h-12zM840 264h12v12h-12zM852 264h12v12h-12zM864 264h12v12h-12zM876 264h12v12h-12zM888 264h12v12h-12zM24 276h12v12H24zM60 276h12v12H60zM108 276h12v12h-12zM132 276h12v12h-12zM144 276h12v12h-12zM156 276h12v12h-12zM192 276h12v12h-12zM204 276h12v12h-12zM216 276h12v12h-12zM264 276h12v12h-12zM276 276h12v12h-12zM288 276h12v12h-12zM324 276h12v12h-12zM336 276h12v12h-12zM348 276h12v12h-12zM360 276h12v12h-12zM384 276h12v12h-12zM420 276h12v12h-12zM432 276h12v12h-12zM444 276h12v12h-12zM456 276h12v12h-12zM504 276h12v12h-12zM564 276h12v12h-12zM576 276h12v12h-12zM588 276h12v12h-12zM600 276h12v12h-12zM624 276h12v12h-12zM648 276h12v12h-12zM660 276h12v12h-12zM696 276h12v12h-12zM708 276h12v12h-12zM744 276h12v12h-12zM756 276h12v12h-12zM780 276h12v12h-12zM816 276h12v12h-12zM852 276h12v12h-12zM876 276h12v12h-12zM912 276h12v12h-12zM48 288h12v12H48zM96 288h12v12H96zM108 288h12v12h-12zM156 288h12v12h-12zM180 288h12v12h-12zM216 288h12v12h-12zM240 288h12v12h-12zM264 288h12v12h-12zM276 288h12v12h-12zM288 288h12v12h-12zM324 288h12v12h-12zM336 288h12v12h-12zM348 288h12v12h-12zM360 288h12v12h-12zM384 288h12v12h-12zM408 288h12v12h-12zM432 288h12v12h-12zM468 288h12v12h-12zM492 288h12v12h-12zM504 288h12v12h-12zM516 288h12v12h-12zM528 288h12v12h-12zM576 288h12v12h-12zM612 288h12v12h-12zM624 288h12v12h-12zM636 288h12v12h-12zM648 288h12v12h-12zM660 288h12v12h-12zM672 288h12v12h-12zM696 288h12v12h-12zM720 288h12v12h-12zM744 288h12v12h-12zM756 288h12v12h-12zM768 288h12v12h-12zM828 288h12v12h-12zM840 288h12v12h-12zM888 288h12v12h-12zM912 288h12v12h-12zM24 300h12v12H24zM36 300h12v12H36zM84 300h12v12H84zM132 300h12v12h-12zM240 300h12v12h-12zM264 300h12v12h-12zM288 300h12v12h-12zM336 300h12v12h-12zM432 300h12v12h-12zM456 300h12v12h-12zM480 300h12v12h-12zM492 300h12v12h-12zM540 300h12v12h-12zM588 300h12v12h-12zM648 300h12v12h-12zM660 300h12v12h-12zM696 300h12v12h-12zM720 300h12v12h-12zM744 300h12v12h-12zM756 300h12v12h-12zM780 300h12v12h-12zM792 300h12v12h-12zM816 300h12v12h-12zM876 300h12v12h-12zM900 300h12v12h-12zM24 312h12v12H24zM36 312h12v12H36zM48 312h12v12H48zM60 312h12v12H60zM72 312h12v12H72zM84 312h12v12H84zM96 312h12v12H96zM108 312h12v12h-12zM120 312h12v12h-12zM144 312h12v12h-12zM180 312h12v12h-12zM192 312h12v12h-12zM228 312h12v12h-12zM300 312h12v12h-12zM312 312h12v12h-12zM324 312h12v12h-12zM336 312h12v12h-12zM348 312h12v12h-12zM360 312h12v12h-12zM396 312h12v12h-12zM408 312h12v12h-12zM444 312h12v12h-12zM456 312h12v12h-12zM468 312h12v12h-12zM480 312h12v12h-12zM516 312h12v12h-12zM528 312h12v12h-12zM540 312h12v12h-12zM576 312h12v12h-12zM588 312h12v12h-12zM600 312h12v12h-12zM612 312h12v12h-12zM624 312h12v12h-12zM636 312h12v12h-12zM648 312h12v12h-12zM660 312h12v12h-12zM672 312h12v12h-12zM684 312h12v12h-12zM696 312h12v12h-12zM720 312h12v12h-12zM732 312h12v12h-12zM756 312h12v12h-12zM768 312h12v12h-12zM780 312h12v12h-12zM792 312h12v12h-12zM804 312h12v12h-12zM828 312h12v12h-12zM840 312h12v12h-12zM852 312h12v12h-12zM864 312h12v12h-12zM876 312h12v12h-12zM888 312h12v12h-12zM912 312h12v12h-12zM924 312h12v12h-12zM24 324h12v12H24zM36 324h12v12H36zM60 324h12v12H60zM72 324h12v12H72zM120 324h12v12h-12zM132 324h12v12h-12zM168 324h12v12h-12zM180 324h12v12h-12zM204 324h12v12h-12zM228 324h12v12h-12zM240 324h12v12h-12zM276 324h12v12h-12zM288 324h12v12h-12zM312 324h12v12h-12zM360 324h12v12h-12zM372 324h12v12h-12zM384 324h12v12h-12zM408 324h12v12h-12zM420 324h12v12h-12zM432 324h12v12h-12zM468 324h12v12h-12zM552 324h12v12h-12zM576 324h12v12h-12zM624 324h12v12h-12zM636 324h12v12h-12zM660 324h12v12h-12zM672 324h12v12h-12zM696 324h12v12h-12zM732 324h12v12h-12zM744 324h12v12h-12zM756 324h12v12h-12zM780 324h12v12h-12zM828 324h12v12h-12zM840 324h12v12h-12zM888 324h12v12h-12zM924 324h12v12h-12zM936 324h12v12h-12zM24 336h12v12H24zM72 336h12v12H72zM96 336h12v12H96zM120 336h12v12h-12zM144 336h12v12h-12zM228 336h12v12h-12zM240 336h12v12h-12zM264 336h12v12h-12zM312 336h12v12h-12zM336 336h12v12h-12zM360 336h12v12h-12zM384 336h12v12h-12zM396 336h12v12h-12zM408 336h12v12h-12zM456 336h12v12h-12zM468 336h12v12h-12zM480 336h12v12h-12zM564 336h12v12h-12zM576 336h12v12h-12zM600 336h12v12h-12zM624 336h12v12h-12zM684 336h12v12h-12zM696 336h12v12h-12zM732 336h12v12h-12zM744 336h12v12h-12zM768 336h12v12h-12zM840 336h12v12h-12zM864 336h12v12h-12zM888 336h12v12h-12zM912 336h12v12h-12zM36 348h12v12H36zM72 348h12v12H72zM120 348h12v12h-12zM132 348h12v12h-12zM204 348h12v12h-12zM216 348h12v12h-12zM228 348h12v12h-12zM276 348h12v12h-12zM288 348h12v12h-12zM300 348h12v12h-12zM312 348h12v12h-12zM360 348h12v12h-12zM372 348h12v12h-12zM384 348h12v12h-12zM420 348h12v12h-12zM444 348h12v12h-12zM468 348h12v12h-12zM492 348h12v12h-12zM552 348h12v12h-12zM564 348h12v12h-12zM576 348h12v12h-12zM624 348h12v12h-12zM636 348h12v12h-12zM648 348h12v12h-12zM660 348h12v12h-12zM672 348h12v12h-12zM696 348h12v12h-12zM744 348h12v12h-12zM792 348h12v12h-12zM804 348h12v12h-12zM828 348h12v12h-12zM840 348h12v12h-12zM888 348h12v12h-12zM900 348h12v12h-12zM936 348h12v12h-12zM24 360h12v12H24zM36 360h12v12H36zM48 360h12v12H48zM72 360h12v12H72zM84 360h12v12H84zM96 360h12v12H96zM108 360h12v12h-12zM120 360h12v12h-12zM144 360h12v12h-12zM156 360h12v12h-12zM168 360h12v12h-12zM180 360h12v12h-12zM216 360h12v12h-12zM252 360h12v12h-12zM288 360h12v12h-12zM312 360h12v12h-12zM324 360h12v12h-12zM336 360h12v12h-12zM348 360h12v12h-12zM360 360h12v12h-12zM396 360h12v12h-12zM456 360h12v12h-12zM480 360h12v12h-12zM492 360h12v12h-12zM552 360h12v12h-12zM576 360h12v12h-12zM588 360h12v12h-12zM600 360h12v12h-12zM612 360h12v12h-12zM624 360h12v12h-12zM636 360h12v12h-12zM648 360h12v12h-12zM684 360h12v12h-12zM708 360h12v12h-12zM720 360h12v12h-12zM732 360h12v12h-12zM768 360h12v12h-12zM780 360h12v12h-12zM840 360h12v12h-12zM852 360h12v12h-12zM864 360h12v12h-12zM876 360h12v12h-12zM888 360h12v12h-12zM24 372h12v12H24zM48 372h12v12H48zM108 372h12v12h-12zM180 372h12v12h-12zM192 372h12v12h-12zM204 372h12v12h-12zM228 372h12v12h-12zM240 372h12v12h-12zM252 372h12v12h-12zM264 372h12v12h-12zM300 372h12v12h-12zM312 372h12v12h-12zM408 372h12v12h-12zM420 372h12v12h-12zM432 372h12v12h-12zM444 372h12v12h-12zM456 372h12v12h-12zM480 372h12v12h-12zM492 372h12v12h-12zM504 372h12v12h-12zM528 372h12v12h-12zM564 372h12v12h-12zM576 372h12v12h-12zM600 372h12v12h-12zM612 372h12v12h-12zM624 372h12v12h-12zM744 372h12v12h-12zM768 372h12v12h-12zM816 372h12v12h-12zM828 372h12v12h-12zM852 372h12v12h-12zM876 372h12v12h-12zM888 372h12v12h-12zM912 372h12v12h-12zM936 372h12v12h-12zM24 384h12v12H24zM48 384h12v12H48zM72 384h12v12H72zM96 384h12v12H96zM120 384h12v12h-12zM132 384h12v12h-12zM156 384h12v12h-12zM168 384h12v12h-12zM204 384h12v12h-12zM216 384h12v12h-12zM228 384h12v12h-12zM264 384h12v12h-12zM276 384h12v12h-12zM336 384h12v12h-12zM384 384h12v12h-12zM396 384h12v12h-12zM408 384h12v12h-12zM420 384h12v12h-12zM432 384h12v12h-12zM444 384h12v12h-12zM456 384h12v12h-12zM492 384h12v12h-12zM588 384h12v12h-12zM612 384h12v12h-12zM636 384h12v12h-12zM660 384h12v12h-12zM672 384h12v12h-12zM708 384h12v12h-12zM720 384h12v12h-12zM744 384h12v12h-12zM768 384h12v12h-12zM780 384h12v12h-12zM804 384h12v12h-12zM828 384h12v12h-12zM840 384h12v12h-12zM864 384h12v12h-12zM876 384h12v12h-12zM900 384h12v12h-12zM48 396h12v12H48zM72 396h12v12H72zM84 396h12v12H84zM132 396h12v12h-12zM156 396h12v12h-12zM168 396h12v12h-12zM180 396h12v12h-12zM192 396h12v12h-12zM204 396h12v12h-12zM216 396h12v12h-12zM228 396h12v12h-12zM300 396h12v12h-12zM348 396h12v12h-12zM408 396h12v12h-12zM420 396h12v12h-12zM432 396h12v12h-12zM456 396h12v12h-12zM468 396h12v12h-12zM492 396h12v12h-12zM516 396h12v12h-12zM540 396h12v12h-12zM552 396h12v12h-12zM576 396h12v12h-12zM600 396h12v12h-12zM648 396h12v12h-12zM672 396h12v12h-12zM696 396h12v12h-12zM732 396h12v12h-12zM744 396h12v12h-12zM756 396h12v12h-12zM768 396h12v12h-12zM780 396h12v12h-12zM792 396h12v12h-12zM804 396h12v12h-12zM828 396h12v12h-12zM876 396h12v12h-12zM888 396h12v12h-12zM900 396h12v12h-12zM924 396h12v12h-12zM936 396h12v12h-12zM24 408h12v12H24zM60 408h12v12H60zM72 408h12v12H72zM84 408h12v12H84zM96 408h12v12H96zM108 408h12v12h-12zM120 408h12v12h-12zM132 408h12v12h-12zM144 408h12v12h-12zM156 408h12v12h-12zM180 408h12v12h-12zM204 408h12v12h-12zM252 408h12v12h-12zM264 408h12v12h-12zM276 408h12v12h-12zM288 408h12v12h-12zM300 408h12v12h-12zM336 408h12v12h-12zM348 408h12v12h-12zM372 408h12v12h-12zM384 408h12v12h-12zM444 408h12v12h-12zM468 408h12v12h-12zM480 408h12v12h-12zM552 408h12v12h-12zM564 408h12v12h-12zM576 408h12v12h-12zM588 408h12v12h-12zM660 408h12v12h-12zM732 408h12v12h-12zM756 408h12v12h-12zM768 408h12v12h-12zM792 408h12v12h-12zM816 408h12v12h-12zM876 408h12v12h-12zM888 408h12v12h-12zM924 408h12v12h-12zM36 420h12v12H36zM84 420h12v12H84zM108 420h12v12h-12zM120 420h12v12h-12zM132 420h12v12h-12zM144 420h12v12h-12zM168 420h12v12h-12zM204 420h12v12h-12zM252 420h12v12h-12zM276 420h12v12h-12zM288 420h12v12h-12zM300 420h12v12h-12zM324 420h12v12h-12zM348 420h12v12h-12zM360 420h12v12h-12zM420 420h12v12h-12zM432 420h12v12h-12zM492 420h12v12h-12zM504 420h12v12h-12zM516 420h12v12h-12zM540 420h12v12h-12zM564 420h12v12h-12zM588 420h12v12h-12zM600 420h12v12h-12zM648 420h12v12h-12zM672 420h12v12h-12zM768 420h12v12h-12zM804 420h12v12h-12zM852 420h12v12h-12zM888 420h12v12h-12zM912 420h12v12h-12zM24 432h12v12H24zM48 432h12v12H48zM96 432h12v12H96zM108 432h12v12h-12zM156 432h12v12h-12zM168 432h12v12h-12zM192 432h12v12h-12zM204 432h12v12h-12zM228 432h12v12h-12zM252 432h12v12h-12zM324 432h12v12h-12zM336 432h12v12h-12zM348 432h12v12h-12zM360 432h12v12h-12zM384 432h12v12h-12zM408 432h12v12h-12zM420 432h12v12h-12zM432 432h12v12h-12zM444 432h12v12h-12zM528 432h12v12h-12zM540 432h12v12h-12zM576 432h12v12h-12zM588 432h12v12h-12zM600 432h12v12h-12zM624 432h12v12h-12zM636 432h12v12h-12zM660 432h12v12h-12zM672 432h12v12h-12zM684 432h12v12h-12zM696 432h12v12h-12zM708 432h12v12h-12zM720 432h12v12h-12zM744 432h12v12h-12zM756 432h12v12h-12zM768 432h12v12h-12zM816 432h12v12h-12zM852 432h12v12h-12zM876 432h12v12h-12zM888 432h12v12h-12zM24 444h12v12H24zM36 444h12v12H36zM60 444h12v12H60zM108 444h12v12h-12zM132 444h12v12h-12zM144 444h12v12h-12zM168 444h12v12h-12zM192 444h12v12h-12zM216 444h12v12h-12zM264 444h12v12h-12zM288 444h12v12h-12zM312 444h12v12h-12zM324 444h12v12h-12zM348 444h12v12h-12zM360 444h12v12h-12zM372 444h12v12h-12zM480 444h12v12h-12zM492 444h12v12h-12zM504 444h12v12h-12zM540 444h12v12h-12zM588 444h12v12h-12zM636 444h12v12h-12zM660 444h12v12h-12zM672 444h12v12h-12zM696 444h12v12h-12zM708 444h12v12h-12zM756 444h12v12h-12zM780 444h12v12h-12zM792 444h12v12h-12zM876 444h12v12h-12zM912 444h12v12h-12zM924 444h12v12h-12zM24 456h12v12H24zM48 456h12v12H48zM84 456h12v12H84zM96 456h12v12H96zM108 456h12v12h-12zM180 456h12v12h-12zM216 456h12v12h-12zM252 456h12v12h-12zM276 456h12v12h-12zM312 456h12v12h-12zM324 456h12v12h-12zM336 456h12v12h-12zM360 456h12v12h-12zM408 456h12v12h-12zM528 456h12v12h-12zM540 456h12v12h-12zM564 456h12v12h-12zM624 456h12v12h-12zM648 456h12v12h-12zM696 456h12v12h-12zM720 456h12v12h-12zM732 456h12v12h-12zM768 456h12v12h-12zM792 456h12v12h-12zM816 456h12v12h-12zM828 456h12v12h-12zM840 456h12v12h-12zM876 456h12v12h-12zM888 456h12v12h-12zM900 456h12v12h-12zM912 456h12v12h-12zM924 456h12v12h-12zM24 468h12v12H24zM48 468h12v12H48zM72 468h12v12H72zM108 468h12v12h-12zM120 468h12v12h-12zM156 468h12v12h-12zM180 468h12v12h-12zM204 468h12v12h-12zM228 468h12v12h-12zM240 468h12v12h-12zM264 468h12v12h-12zM312 468h12v12h-12zM348 468h12v12h-12zM360 468h12v12h-12zM372 468h12v12h-12zM408 468h12v12h-12zM420 468h12v12h-12zM432 468h12v12h-12zM444 468h12v12h-12zM456 468h12v12h-12zM468 468h12v12h-12zM480 468h12v12h-12zM492 468h12v12h-12zM516 468h12v12h-12zM528 468h12v12h-12zM540 468h12v12h-12zM564 468h12v12h-12zM600 468h12v12h-12zM636 468h12v12h-12zM648 468h12v12h-12zM672 468h12v12h-12zM696 468h12v12h-12zM708 468h12v12h-12zM720 468h12v12h-12zM744 468h12v12h-12zM768 468h12v12h-12zM780 468h12v12h-12zM828 468h12v12h-12zM840 468h12v12h-12zM864 468h12v12h-12zM888 468h12v12h-12zM924 468h12v12h-12zM936 468h12v12h-12zM48 480h12v12H48zM60 480h12v12H60zM72 480h12v12H72zM96 480h12v12H96zM120 480h12v12h-12zM144 480h12v12h-12zM168 480h12v12h-12zM180 480h12v12h-12zM192 480h12v12h-12zM204 480h12v12h-12zM216 480h12v12h-12zM252 480h12v12h-12zM276 480h12v12h-12zM300 480h12v12h-12zM324 480h12v12h-12zM384 480h12v12h-12zM396 480h12v12h-12zM420 480h12v12h-12zM432 480h12v12h-12zM444 480h12v12h-12zM504 480h12v12h-12zM540 480h12v12h-12zM612 480h12v12h-12zM624 480h12v12h-12zM684 480h12v12h-12zM708 480h12v12h-12zM720 480h12v12h-12zM780 480h12v12h-12zM804 480h12v12h-12zM900 480h12v12h-12zM936 480h12v12h-12zM84 492h12v12H84zM108 492h12v12h-12zM120 492h12v12h-12zM144 492h12v12h-12zM156 492h12v12h-12zM168 492h12v12h-12zM264 492h12v12h-12zM312 492h12v12h-12zM324 492h12v12h-12zM336 492h12v12h-12zM348 492h12v12h-12zM420 492h12v12h-12zM432 492h12v12h-12zM468 492h12v12h-12zM480 492h12v12h-12zM492 492h12v12h-12zM528 492h12v12h-12zM564 492h12v12h-12zM576 492h12v12h-12zM612 492h12v12h-12zM624 492h12v12h-12zM636 492h12v12h-12zM672 492h12v12h-12zM708 492h12v12h-12zM780 492h12v12h-12zM816 492h12v12h-12zM828 492h12v12h-12zM852 492h12v12h-12zM864 492h12v12h-12zM888 492h12v12h-12zM900 492h12v12h-12zM912 492h12v12h-12zM36 504h12v12H36zM72 504h12v12H72zM96 504h12v12H96zM108 504h12v12h-12zM132 504h12v12h-12zM156 504h12v12h-12zM168 504h12v12h-12zM204 504h12v12h-12zM216 504h12v12h-12zM228 504h12v12h-12zM252 504h12v12h-12zM276 504h12v12h-12zM288 504h12v12h-12zM300 504h12v12h-12zM312 504h12v12h-12zM324 504h12v12h-12zM372 504h12v12h-12zM408 504h12v12h-12zM420 504h12v12h-12zM432 504h12v12h-12zM444 504h12v12h-12zM480 504h12v12h-12zM504 504h12v12h-12zM540 504h12v12h-12zM576 504h12v12h-12zM636 504h12v12h-12zM660 504h12v12h-12zM780 504h12v12h-12zM792 504h12v12h-12zM804 504h12v12h-12zM816 504h12v12h-12zM876 504h12v12h-12zM888 504h12v12h-12zM936 504h12v12h-12zM24 516h12v12H24zM48 516h12v12H48zM60 516h12v12H60zM72 516h12v12H72zM84 516h12v12H84zM108 516h12v12h-12zM132 516h12v12h-12zM144 516h12v12h-12zM168 516h12v12h-12zM204 516h12v12h-12zM216 516h12v12h-12zM252 516h12v12h-12zM276 516h12v12h-12zM312 516h12v12h-12zM324 516h12v12h-12zM348 516h12v12h-12zM360 516h12v12h-12zM372 516h12v12h-12zM396 516h12v12h-12zM408 516h12v12h-12zM432 516h12v12h-12zM456 516h12v12h-12zM468 516h12v12h-12zM480 516h12v12h-12zM492 516h12v12h-12zM504 516h12v12h-12zM516 516h12v12h-12zM528 516h12v12h-12zM540 516h12v12h-12zM564 516h12v12h-12zM588 516h12v12h-12zM600 516h12v12h-12zM612 516h12v12h-12zM648 516h12v12h-12zM672 516h12v12h-12zM684 516h12v12h-12zM696 516h12v12h-12zM708 516h12v12h-12zM720 516h12v12h-12zM732 516h12v12h-12zM756 516h12v12h-12zM780 516h12v12h-12zM804 516h12v12h-12zM816 516h12v12h-12zM840 516h12v12h-12zM852 516h12v12h-12zM876 516h12v12h-12zM924 516h12v12h-12zM936 516h12v12h-12zM24 528h12v12H24zM48 528h12v12H48zM72 528h12v12H72zM96 528h12v12H96zM132 528h12v12h-12zM144 528h12v12h-12zM156 528h12v12h-12zM204 528h12v12h-12zM288 528h12v12h-12zM300 528h12v12h-12zM348 528h12v12h-12zM360 528h12v12h-12zM372 528h12v12h-12zM384 528h12v12h-12zM408 528h12v12h-12zM420 528h12v12h-12zM444 528h12v12h-12zM504 528h12v12h-12zM516 528h12v12h-12zM528 528h12v12h-12zM540 528h12v12h-12zM552 528h12v12h-12zM564 528h12v12h-12zM588 528h12v12h-12zM600 528h12v12h-12zM636 528h12v12h-12zM744 528h12v12h-12zM756 528h12v12h-12zM840 528h12v12h-12zM876 528h12v12h-12zM912 528h12v12h-12zM936 528h12v12h-12zM24 540h12v12H24zM60 540h12v12H60zM132 540h12v12h-12zM156 540h12v12h-12zM180 540h12v12h-12zM228 540h12v12h-12zM252 540h12v12h-12zM288 540h12v12h-12zM300 540h12v12h-12zM312 540h12v12h-12zM324 540h12v12h-12zM336 540h12v12h-12zM396 540h12v12h-12zM456 540h12v12h-12zM468 540h12v12h-12zM492 540h12v12h-12zM516 540h12v12h-12zM528 540h12v12h-12zM552 540h12v12h-12zM576 540h12v12h-12zM588 540h12v12h-12zM612 540h12v12h-12zM624 540h12v12h-12zM636 540h12v12h-12zM672 540h12v12h-12zM708 540h12v12h-12zM720 540h12v12h-12zM732 540h12v12h-12zM756 540h12v12h-12zM768 540h12v12h-12zM804 540h12v12h-12zM816 540h12v12h-12zM852 540h12v12h-12zM888 540h12v12h-12zM900 540h12v12h-12zM912 540h12v12h-12zM924 540h12v12h-12zM24 552h12v12H24zM36 552h12v12H36zM60 552h12v12H60zM72 552h12v12H72zM84 552h12v12H84zM96 552h12v12H96zM108 552h12v12h-12zM156 552h12v12h-12zM180 552h12v12h-12zM204 552h12v12h-12zM228 552h12v12h-12zM240 552h12v12h-12zM252 552h12v12h-12zM264 552h12v12h-12zM276 552h12v12h-12zM288 552h12v12h-12zM300 552h12v12h-12zM312 552h12v12h-12zM324 552h12v12h-12zM336 552h12v12h-12zM360 552h12v12h-12zM372 552h12v12h-12zM396 552h12v12h-12zM420 552h12v12h-12zM432 552h12v12h-12zM444 552h12v12h-12zM480 552h12v12h-12zM504 552h12v12h-12zM612 552h12v12h-12zM636 552h12v12h-12zM660 552h12v12h-12zM696 552h12v12h-12zM780 552h12v12h-12zM804 552h12v12h-12zM816 552h12v12h-12zM840 552h12v12h-12zM876 552h12v12h-12zM888 552h12v12h-12zM900 552h12v12h-12zM924 552h12v12h-12zM936 552h12v12h-12zM36 564h12v12H36zM48 564h12v12H48zM60 564h12v12H60zM168 564h12v12h-12zM180 564h12v12h-12zM192 564h12v12h-12zM216 564h12v12h-12zM228 564h12v12h-12zM252 564h12v12h-12zM300 564h12v12h-12zM348 564h12v12h-12zM384 564h12v12h-12zM396 564h12v12h-12zM408 564h12v12h-12zM420 564h12v12h-12zM432 564h12v12h-12zM468 564h12v12h-12zM492 564h12v12h-12zM540 564h12v12h-12zM564 564h12v12h-12zM576 564h12v12h-12zM636 564h12v12h-12zM672 564h12v12h-12zM684 564h12v12h-12zM708 564h12v12h-12zM720 564h12v12h-12zM756 564h12v12h-12zM780 564h12v12h-12zM804 564h12v12h-12zM828 564h12v12h-12zM840 564h12v12h-12zM852 564h12v12h-12zM888 564h12v12h-12zM912 564h12v12h-12zM924 564h12v12h-12zM936 564h12v12h-12zM36 576h12v12H36zM48 576h12v12H48zM60 576h12v12H60zM72 576h12v12H72zM84 576h12v12H84zM96 576h12v12H96zM108 576h12v12h-12zM120 576h12v12h-12zM144 576h12v12h-12zM156 576h12v12h-12zM180 576h12v12h-12zM216 576h12v12h-12zM228 576h12v12h-12zM240 576h12v12h-12zM264 576h12v12h-12zM288 576h12v12h-12zM300 576h12v12h-12zM312 576h12v12h-12zM324 576h12v12h-12zM336 576h12v12h-12zM348 576h12v12h-12zM360 576h12v12h-12zM372 576h12v12h-12zM420 576h12v12h-12zM432 576h12v12h-12zM444 576h12v12h-12zM480 576h12v12h-12zM504 576h12v12h-12zM516 576h12v12h-12zM540 576h12v12h-12zM576 576h12v12h-12zM588 576h12v12h-12zM600 576h12v12h-12zM612 576h12v12h-12zM624 576h12v12h-12zM660 576h12v12h-12zM684 576h12v12h-12zM708 576h12v12h-12zM720 576h12v12h-12zM732 576h12v12h-12zM744 576h12v12h-12zM768 576h12v12h-12zM780 576h12v12h-12zM792 576h12v12h-12zM804 576h12v12h-12zM816 576h12v12h-12zM828 576h12v12h-12zM840 576h12v12h-12zM852 576h12v12h-12zM864 576h12v12h-12zM876 576h12v12h-12zM888 576h12v12h-12zM900 576h12v12h-12zM924 576h12v12h-12zM48 588h12v12H48zM60 588h12v12H60zM72 588h12v12H72zM120 588h12v12h-12zM144 588h12v12h-12zM180 588h12v12h-12zM192 588h12v12h-12zM204 588h12v12h-12zM216 588h12v12h-12zM228 588h12v12h-12zM252 588h12v12h-12zM264 588h12v12h-12zM288 588h12v12h-12zM312 588h12v12h-12zM360 588h12v12h-12zM384 588h12v12h-12zM396 588h12v12h-12zM432 588h12v12h-12zM444 588h12v12h-12zM456 588h12v12h-12zM480 588h12v12h-12zM492 588h12v12h-12zM504 588h12v12h-12zM528 588h12v12h-12zM552 588h12v12h-12zM564 588h12v12h-12zM576 588h12v12h-12zM624 588h12v12h-12zM636 588h12v12h-12zM648 588h12v12h-12zM672 588h12v12h-12zM708 588h12v12h-12zM732 588h12v12h-12zM744 588h12v12h-12zM780 588h12v12h-12zM792 588h12v12h-12zM804 588h12v12h-12zM840 588h12v12h-12zM888 588h12v12h-12zM912 588h12v12h-12zM936 588h12v12h-12zM24 600h12v12H24zM36 600h12v12H36zM60 600h12v12H60zM72 600h12v12H72zM96 600h12v12H96zM120 600h12v12h-12zM156 600h12v12h-12zM168 600h12v12h-12zM180 600h12v12h-12zM204 600h12v12h-12zM228 600h12v12h-12zM252 600h12v12h-12zM264 600h12v12h-12zM276 600h12v12h-12zM300 600h12v12h-12zM312 600h12v12h-12zM336 600h12v12h-12zM360 600h12v12h-12zM384 600h12v12h-12zM396 600h12v12h-12zM420 600h12v12h-12zM432 600h12v12h-12zM516 600h12v12h-12zM528 600h12v12h-12zM540 600h12v12h-12zM552 600h12v12h-12zM576 600h12v12h-12zM600 600h12v12h-12zM624 600h12v12h-12zM648 600h12v12h-12zM660 600h12v12h-12zM672 600h12v12h-12zM684 600h12v12h-12zM708 600h12v12h-12zM720 600h12v12h-12zM732 600h12v12h-12zM744 600h12v12h-12zM756 600h12v12h-12zM780 600h12v12h-12zM792 600h12v12h-12zM816 600h12v12h-12zM828 600h12v12h-12zM840 600h12v12h-12zM864 600h12v12h-12zM888 600h12v12h-12zM36 612h12v12H36zM60 612h12v12H60zM72 612h12v12H72zM120 612h12v12h-12zM132 612h12v12h-12zM192 612h12v12h-12zM204 612h12v12h-12zM216 612h12v12h-12zM228 612h12v12h-12zM264 612h12v12h-12zM288 612h12v12h-12zM312 612h12v12h-12zM360 612h12v12h-12zM372 612h12v12h-12zM396 612h12v12h-12zM432 612h12v12h-12zM444 612h12v12h-12zM456 612h12v12h-12zM468 612h12v12h-12zM492 612h12v12h-12zM504 612h12v12h-12zM540 612h12v12h-12zM552 612h12v12h-12zM564 612h12v12h-12zM576 612h12v12h-12zM624 612h12v12h-12zM672 612h12v12h-12zM684 612h12v12h-12zM720 612h12v12h-12zM732 612h12v12h-12zM756 612h12v12h-12zM780 612h12v12h-12zM792 612h12v12h-12zM804 612h12v12h-12zM840 612h12v12h-12zM888 612h12v12h-12zM912 612h12v12h-12zM924 612h12v12h-12zM936 612h12v12h-12zM24 624h12v12H24zM60 624h12v12H60zM72 624h12v12H72zM84 624h12v12H84zM96 624h12v12H96zM108 624h12v12h-12zM120 624h12v12h-12zM144 624h12v12h-12zM180 624h12v12h-12zM192 624h12v12h-12zM204 624h12v12h-12zM240 624h12v12h-12zM264 624h12v12h-12zM300 624h12v12h-12zM312 624h12v12h-12zM324 624h12v12h-12zM336 624h12v12h-12zM348 624h12v12h-12zM360 624h12v12h-12zM372 624h12v12h-12zM384 624h12v12h-12zM420 624h12v12h-12zM456 624h12v12h-12zM480 624h12v12h-12zM504 624h12v12h-12zM528 624h12v12h-12zM552 624h12v12h-12zM576 624h12v12h-12zM588 624h12v12h-12zM600 624h12v12h-12zM612 624h12v12h-12zM624 624h12v12h-12zM660 624h12v12h-12zM684 624h12v12h-12zM732 624h12v12h-12zM744 624h12v12h-12zM768 624h12v12h-12zM792 624h12v12h-12zM804 624h12v12h-12zM816 624h12v12h-12zM828 624h12v12h-12zM840 624h12v12h-12zM852 624h12v12h-12zM864 624h12v12h-12zM876 624h12v12h-12zM888 624h12v12h-12zM24 636h12v12H24zM48 636h12v12H48zM60 636h12v12H60zM84 636h12v12H84zM108 636h12v12h-12zM180 636h12v12h-12zM192 636h12v12h-12zM204 636h12v12h-12zM216 636h12v12h-12zM240 636h12v12h-12zM252 636h12v12h-12zM264 636h12v12h-12zM276 636h12v12h-12zM312 636h12v12h-12zM324 636h12v12h-12zM336 636h12v12h-12zM360 636h12v12h-12zM372 636h12v12h-12zM444 636h12v12h-12zM456 636h12v12h-12zM468 636h12v12h-12zM492 636h12v12h-12zM504 636h12v12h-12zM528 636h12v12h-12zM564 636h12v12h-12zM576 636h12v12h-12zM588 636h12v12h-12zM600 636h12v12h-12zM612 636h12v12h-12zM636 636h12v12h-12zM672 636h12v12h-12zM684 636h12v12h-12zM696 636h12v12h-12zM708 636h12v12h-12zM744 636h12v12h-12zM768 636h12v12h-12zM816 636h12v12h-12zM828 636h12v12h-12zM864 636h12v12h-12zM876 636h12v12h-12zM900 636h12v12h-12zM912 636h12v12h-12zM924 636h12v12h-12zM936 636h12v12h-12zM36 648h12v12H36zM60 648h12v12H60zM96 648h12v12H96zM108 648h12v12h-12zM144 648h12v12h-12zM168 648h12v12h-12zM180 648h12v12h-12zM192 648h12v12h-12zM216 648h12v12h-12zM252 648h12v12h-12zM276 648h12v12h-12zM288 648h12v12h-12zM312 648h12v12h-12zM336 648h12v12h-12zM348 648h12v12h-12zM372 648h12v12h-12zM420 648h12v12h-12zM432 648h12v12h-12zM456 648h12v12h-12zM504 648h12v12h-12zM540 648h12v12h-12zM552 648h12v12h-12zM588 648h12v12h-12zM600 648h12v12h-12zM612 648h12v12h-12zM624 648h12v12h-12zM660 648h12v12h-12zM708 648h12v12h-12zM732 648h12v12h-12zM744 648h12v12h-12zM756 648h12v12h-12zM780 648h12v12h-12zM804 648h12v12h-12zM852 648h12v12h-12zM864 648h12v12h-12zM912 648h12v12h-12zM924 648h12v12h-12zM936 648h12v12h-12zM48 660h12v12H48zM60 660h12v12H60zM108 660h12v12h-12zM120 660h12v12h-12zM132 660h12v12h-12zM144 660h12v12h-12zM168 660h12v12h-12zM180 660h12v12h-12zM192 660h12v12h-12zM216 660h12v12h-12zM228 660h12v12h-12zM252 660h12v12h-12zM264 660h12v12h-12zM300 660h12v12h-12zM324 660h12v12h-12zM336 660h12v12h-12zM348 660h12v12h-12zM360 660h12v12h-12zM372 660h12v12h-12zM444 660h12v12h-12zM468 660h12v12h-12zM480 660h12v12h-12zM504 660h12v12h-12zM528 660h12v12h-12zM540 660h12v12h-12zM576 660h12v12h-12zM600 660h12v12h-12zM612 660h12v12h-12zM636 660h12v12h-12zM648 660h12v12h-12zM696 660h12v12h-12zM720 660h12v12h-12zM732 660h12v12h-12zM756 660h12v12h-12zM768 660h12v12h-12zM780 660h12v12h-12zM816 660h12v12h-12zM828 660h12v12h-12zM876 660h12v12h-12zM912 660h12v12h-12zM924 660h12v12h-12zM936 660h12v12h-12zM36 672h12v12H36zM72 672h12v12H72zM84 672h12v12H84zM96 672h12v12H96zM108 672h12v12h-12zM120 672h12v12h-12zM156 672h12v12h-12zM168 672h12v12h-12zM180 672h12v12h-12zM192 672h12v12h-12zM216 672h12v12h-12zM240 672h12v12h-12zM264 672h12v12h-12zM288 672h12v12h-12zM300 672h12v12h-12zM324 672h12v12h-12zM348 672h12v12h-12zM360 672h12v12h-12zM372 672h12v12h-12zM384 672h12v12h-12zM504 672h12v12h-12zM516 672h12v12h-12zM528 672h12v12h-12zM540 672h12v12h-12zM552 672h12v12h-12zM564 672h12v12h-12zM636 672h12v12h-12zM684 672h12v12h-12zM696 672h12v12h-12zM708 672h12v12h-12zM720 672h12v12h-12zM732 672h12v12h-12zM744 672h12v12h-12zM756 672h12v12h-12zM804 672h12v12h-12zM816 672h12v12h-12zM828 672h12v12h-12zM840 672h12v12h-12zM852 672h12v12h-12zM864 672h12v12h-12zM876 672h12v12h-12zM888 672h12v12h-12zM900 672h12v12h-12zM24 684h12v12H24zM48 684h12v12H48zM60 684h12v12H60zM84 684h12v12H84zM108 684h12v12h-12zM132 684h12v12h-12zM144 684h12v12h-12zM168 684h12v12h-12zM192 684h12v12h-12zM204 684h12v12h-12zM216 684h12v12h-12zM228 684h12v12h-12zM240 684h12v12h-12zM264 684h12v12h-12zM276 684h12v12h-12zM288 684h12v12h-12zM312 684h12v12h-12zM324 684h12v12h-12zM360 684h12v12h-12zM384 684h12v12h-12zM420 684h12v12h-12zM432 684h12v12h-12zM456 684h12v12h-12zM468 684h12v12h-12zM492 684h12v12h-12zM612 684h12v12h-12zM624 684h12v12h-12zM636 684h12v12h-12zM660 684h12v12h-12zM672 684h12v12h-12zM684 684h12v12h-12zM708 684h12v12h-12zM744 684h12v12h-12zM756 684h12v12h-12zM768 684h12v12h-12zM780 684h12v12h-12zM792 684h12v12h-12zM804 684h12v12h-12zM816 684h12v12h-12zM828 684h12v12h-12zM852 684h12v12h-12zM864 684h12v12h-12zM876 684h12v12h-12zM936 684h12v12h-12zM36 696h12v12H36zM60 696h12v12H60zM72 696h12v12H72zM84 696h12v12H84zM96 696h12v12H96zM108 696h12v12h-12zM132 696h12v12h-12zM168 696h12v12h-12zM192 696h12v12h-12zM204 696h12v12h-12zM216 696h12v12h-12zM228 696h12v12h-12zM240 696h12v12h-12zM264 696h12v12h-12zM300 696h12v12h-12zM324 696h12v12h-12zM372 696h12v12h-12zM384 696h12v12h-12zM396 696h12v12h-12zM468 696h12v12h-12zM504 696h12v12h-12zM516 696h12v12h-12zM528 696h12v12h-12zM540 696h12v12h-12zM552 696h12v12h-12zM624 696h12v12h-12zM636 696h12v12h-12zM648 696h12v12h-12zM684 696h12v12h-12zM732 696h12v12h-12zM780 696h12v12h-12zM792 696h12v12h-12zM840 696h12v12h-12zM852 696h12v12h-12zM888 696h12v12h-12zM924 696h12v12h-12zM24 708h12v12H24zM36 708h12v12H36zM72 708h12v12H72zM132 708h12v12h-12zM168 708h12v12h-12zM192 708h12v12h-12zM204 708h12v12h-12zM228 708h12v12h-12zM252 708h12v12h-12zM276 708h12v12h-12zM312 708h12v12h-12zM324 708h12v12h-12zM336 708h12v12h-12zM360 708h12v12h-12zM384 708h12v12h-12zM408 708h12v12h-12zM444 708h12v12h-12zM456 708h12v12h-12zM480 708h12v12h-12zM504 708h12v12h-12zM540 708h12v12h-12zM564 708h12v12h-12zM576 708h12v12h-12zM588 708h12v12h-12zM600 708h12v12h-12zM612 708h12v12h-12zM636 708h12v12h-12zM684 708h12v12h-12zM756 708h12v12h-12zM780 708h12v12h-12zM792 708h12v12h-12zM804 708h12v12h-12zM816 708h12v12h-12zM852 708h12v12h-12zM864 708h12v12h-12zM876 708h12v12h-12zM888 708h12v12h-12zM900 708h12v12h-12zM924 708h12v12h-12zM36 720h12v12H36zM96 720h12v12H96zM108 720h12v12h-12zM144 720h12v12h-12zM180 720h12v12h-12zM192 720h12v12h-12zM216 720h12v12h-12zM228 720h12v12h-12zM240 720h12v12h-12zM312 720h12v12h-12zM324 720h12v12h-12zM336 720h12v12h-12zM348 720h12v12h-12zM432 720h12v12h-12zM444 720h12v12h-12zM492 720h12v12h-12zM504 720h12v12h-12zM516 720h12v12h-12zM528 720h12v12h-12zM540 720h12v12h-12zM552 720h12v12h-12zM564 720h12v12h-12zM576 720h12v12h-12zM588 720h12v12h-12zM600 720h12v12h-12zM636 720h12v12h-12zM708 720h12v12h-12zM720 720h12v12h-12zM732 720h12v12h-12zM756 720h12v12h-12zM768 720h12v12h-12zM804 720h12v12h-12zM840 720h12v12h-12zM852 720h12v12h-12zM864 720h12v12h-12zM912 720h12v12h-12zM48 732h12v12H48zM84 732h12v12H84zM108 732h12v12h-12zM144 732h12v12h-12zM180 732h12v12h-12zM192 732h12v12h-12zM204 732h12v12h-12zM240 732h12v12h-12zM252 732h12v12h-12zM264 732h12v12h-12zM276 732h12v12h-12zM336 732h12v12h-12zM348 732h12v12h-12zM384 732h12v12h-12zM396 732h12v12h-12zM408 732h12v12h-12zM456 732h12v12h-12zM516 732h12v12h-12zM528 732h12v12h-12zM576 732h12v12h-12zM588 732h12v12h-12zM600 732h12v12h-12zM636 732h12v12h-12zM648 732h12v12h-12zM672 732h12v12h-12zM708 732h12v12h-12zM744 732h12v12h-12zM756 732h12v12h-12zM792 732h12v12h-12zM816 732h12v12h-12zM864 732h12v12h-12zM912 732h12v12h-12zM24 744h12v12H24zM48 744h12v12H48zM60 744h12v12H60zM96 744h12v12H96zM132 744h12v12h-12zM144 744h12v12h-12zM168 744h12v12h-12zM240 744h12v12h-12zM276 744h12v12h-12zM300 744h12v12h-12zM312 744h12v12h-12zM372 744h12v12h-12zM384 744h12v12h-12zM396 744h12v12h-12zM420 744h12v12h-12zM432 744h12v12h-12zM444 744h12v12h-12zM456 744h12v12h-12zM480 744h12v12h-12zM492 744h12v12h-12zM504 744h12v12h-12zM516 744h12v12h-12zM540 744h12v12h-12zM600 744h12v12h-12zM612 744h12v12h-12zM624 744h12v12h-12zM636 744h12v12h-12zM696 744h12v12h-12zM732 744h12v12h-12zM768 744h12v12h-12zM804 744h12v12h-12zM828 744h12v12h-12zM852 744h12v12h-12zM912 744h12v12h-12zM924 744h12v12h-12zM936 744h12v12h-12zM36 756h12v12H36zM48 756h12v12H48zM60 756h12v12H60zM72 756h12v12H72zM84 756h12v12H84zM108 756h12v12h-12zM120 756h12v12h-12zM132 756h12v12h-12zM168 756h12v12h-12zM180 756h12v12h-12zM204 756h12v12h-12zM216 756h12v12h-12zM228 756h12v12h-12zM240 756h12v12h-12zM276 756h12v12h-12zM288 756h12v12h-12zM300 756h12v12h-12zM324 756h12v12h-12zM348 756h12v12h-12zM360 756h12v12h-12zM372 756h12v12h-12zM432 756h12v12h-12zM444 756h12v12h-12zM456 756h12v12h-12zM468 756h12v12h-12zM504 756h12v12h-12zM576 756h12v12h-12zM588 756h12v12h-12zM600 756h12v12h-12zM612 756h12v12h-12zM648 756h12v12h-12zM660 756h12v12h-12zM720 756h12v12h-12zM732 756h12v12h-12zM744 756h12v12h-12zM792 756h12v12h-12zM840 756h12v12h-12zM852 756h12v12h-12zM900 756h12v12h-12zM912 756h12v12h-12zM24 768h12v12H24zM60 768h12v12H60zM72 768h12v12H72zM84 768h12v12H84zM96 768h12v12H96zM108 768h12v12h-12zM156 768h12v12h-12zM180 768h12v12h-12zM240 768h12v12h-12zM252 768h12v12h-12zM312 768h12v12h-12zM324 768h12v12h-12zM360 768h12v12h-12zM372 768h12v12h-12zM492 768h12v12h-12zM516 768h12v12h-12zM540 768h12v12h-12zM564 768h12v12h-12zM576 768h12v12h-12zM624 768h12v12h-12zM636 768h12v12h-12zM684 768h12v12h-12zM708 768h12v12h-12zM732 768h12v12h-12zM768 768h12v12h-12zM780 768h12v12h-12zM840 768h12v12h-12zM864 768h12v12h-12zM876 768h12v12h-12zM924 768h12v12h-12zM936 768h12v12h-12zM36 780h12v12H36zM60 780h12v12H60zM84 780h12v12H84zM108 780h12v12h-12zM120 780h12v12h-12zM132 780h12v12h-12zM156 780h12v12h-12zM204 780h12v12h-12zM228 780h12v12h-12zM252 780h12v12h-12zM276 780h12v12h-12zM348 780h12v12h-12zM372 780h12v12h-12zM396 780h12v12h-12zM444 780h12v12h-12zM480 780h12v12h-12zM516 780h12v12h-12zM564 780h12v12h-12zM588 780h12v12h-12zM600 780h12v12h-12zM612 780h12v12h-12zM636 780h12v12h-12zM648 780h12v12h-12zM672 780h12v12h-12zM696 780h12v12h-12zM756 780h12v12h-12zM804 780h12v12h-12zM852 780h12v12h-12zM864 780h12v12h-12zM900 780h12v12h-12zM24 792h12v12H24zM96 792h12v12H96zM132 792h12v12h-12zM156 792h12v12h-12zM168 792h12v12h-12zM180 792h12v12h-12zM216 792h12v12h-12zM312 792h12v12h-12zM324 792h12v12h-12zM336 792h12v12h-12zM384 792h12v12h-12zM456 792h12v12h-12zM480 792h12v12h-12zM540 792h12v12h-12zM588 792h12v12h-12zM624 792h12v12h-12zM636 792h12v12h-12zM660 792h12v12h-12zM672 792h12v12h-12zM684 792h12v12h-12zM696 792h12v12h-12zM744 792h12v12h-12zM780 792h12v12h-12zM792 792h12v12h-12zM804 792h12v12h-12zM828 792h12v12h-12zM840 792h12v12h-12zM852 792h12v12h-12zM864 792h12v12h-12zM876 792h12v12h-12zM888 792h12v12h-12zM900 792h12v12h-12zM924 792h12v12h-12zM936 792h12v12h-12zM24 804h12v12H24zM48 804h12v12H48zM72 804h12v12H72zM84 804h12v12H84zM120 804h12v12h-12zM132 804h12v12h-12zM144 804h12v12h-12zM168 804h12v12h-12zM180 804h12v12h-12zM240 804h12v12h-12zM264 804h12v12h-12zM324 804h12v12h-12zM336 804h12v12h-12zM348 804h12v12h-12zM372 804h12v12h-12zM384 804h12v12h-12zM396 804h12v12h-12zM432 804h12v12h-12zM468 804h12v12h-12zM540 804h12v12h-12zM552 804h12v12h-12zM612 804h12v12h-12zM672 804h12v12h-12zM696 804h12v12h-12zM732 804h12v12h-12zM744 804h12v12h-12zM756 804h12v12h-12zM780 804h12v12h-12zM792 804h12v12h-12zM840 804h12v12h-12zM852 804h12v12h-12zM864 804h12v12h-12zM876 804h12v12h-12zM900 804h12v12h-12zM924 804h12v12h-12zM936 804h12v12h-12zM36 816h12v12H36zM72 816h12v12H72zM84 816h12v12H84zM96 816h12v12H96zM108 816h12v12h-12zM120 816h12v12h-12zM132 816h12v12h-12zM144 816h12v12h-12zM168 816h12v12h-12zM180 816h12v12h-12zM204 816h12v12h-12zM228 816h12v12h-12zM240 816h12v12h-12zM264 816h12v12h-12zM288 816h12v12h-12zM324 816h12v12h-12zM348 816h12v12h-12zM360 816h12v12h-12zM444 816h12v12h-12zM468 816h12v12h-12zM504 816h12v12h-12zM528 816h12v12h-12zM564 816h12v12h-12zM636 816h12v12h-12zM648 816h12v12h-12zM660 816h12v12h-12zM672 816h12v12h-12zM708 816h12v12h-12zM720 816h12v12h-12zM744 816h12v12h-12zM756 816h12v12h-12zM768 816h12v12h-12zM792 816h12v12h-12zM804 816h12v12h-12zM816 816h12v12h-12zM852 816h12v12h-12zM864 816h12v12h-12zM876 816h12v12h-12zM912 816h12v12h-12zM72 828h12v12H72zM108 828h12v12h-12zM120 828h12v12h-12zM144 828h12v12h-12zM156 828h12v12h-12zM192 828h12v12h-12zM216 828h12v12h-12zM228 828h12v12h-12zM240 828h12v12h-12zM264 828h12v12h-12zM276 828h12v12h-12zM360 828h12v12h-12zM372 828h12v12h-12zM384 828h12v12h-12zM408 828h12v12h-12zM420 828h12v12h-12zM444 828h12v12h-12zM456 828h12v12h-12zM492 828h12v12h-12zM504 828h12v12h-12zM540 828h12v12h-12zM552 828h12v12h-12zM564 828h12v12h-12zM576 828h12v12h-12zM648 828h12v12h-12zM660 828h12v12h-12zM732 828h12v12h-12zM816 828h12v12h-12zM828 828h12v12h-12zM864 828h12v12h-12zM888 828h12v12h-12zM900 828h12v12h-12zM936 828h12v12h-12zM36 840h12v12H36zM48 840h12v12H48zM60 840h12v12H60zM72 840h12v12H72zM96 840h12v12H96zM156 840h12v12h-12zM168 840h12v12h-12zM192 840h12v12h-12zM204 840h12v12h-12zM228 840h12v12h-12zM240 840h12v12h-12zM264 840h12v12h-12zM288 840h12v12h-12zM300 840h12v12h-12zM312 840h12v12h-12zM324 840h12v12h-12zM336 840h12v12h-12zM348 840h12v12h-12zM360 840h12v12h-12zM372 840h12v12h-12zM384 840h12v12h-12zM396 840h12v12h-12zM408 840h12v12h-12zM444 840h12v12h-12zM456 840h12v12h-12zM492 840h12v12h-12zM504 840h12v12h-12zM528 840h12v12h-12zM540 840h12v12h-12zM552 840h12v12h-12zM564 840h12v12h-12zM576 840h12v12h-12zM588 840h12v12h-12zM600 840h12v12h-12zM612 840h12v12h-12zM624 840h12v12h-12zM636 840h12v12h-12zM648 840h12v12h-12zM720 840h12v12h-12zM780 840h12v12h-12zM804 840h12v12h-12zM816 840h12v12h-12zM828 840h12v12h-12zM840 840h12v12h-12zM852 840h12v12h-12zM864 840h12v12h-12zM876 840h12v12h-12zM888 840h12v12h-12zM912 840h12v12h-12zM936 840h12v12h-12zM120 852h12v12h-12zM180 852h12v12h-12zM216 852h12v12h-12zM228 852h12v12h-12zM240 852h12v12h-12zM252 852h12v12h-12zM276 852h12v12h-12zM288 852h12v12h-12zM300 852h12v12h-12zM312 852h12v12h-12zM360 852h12v12h-12zM444 852h12v12h-12zM504 852h12v12h-12zM576 852h12v12h-12zM624 852h12v12h-12zM636 852h12v12h-12zM648 852h12v12h-12zM708 852h12v12h-12zM720 852h12v12h-12zM744 852h12v12h-12zM768 852h12v12h-12zM816 852h12v12h-12zM840 852h12v12h-12zM888 852h12v12h-12zM924 852h12v12h-12zM936 852h12v12h-12zM132 864h12v12h-12zM216 864h12v12h-12zM228 864h12v12h-12zM240 864h12v12h-12zM252 864h12v12h-12zM276 864h12v12h-12zM288 864h12v12h-12zM300 864h12v12h-12zM312 864h12v12h-12zM336 864h12v12h-12zM360 864h12v12h-12zM372 864h12v12h-12zM408 864h12v12h-12zM432 864h12v12h-12zM444 864h12v12h-12zM540 864h12v12h-12zM564 864h12v12h-12zM576 864h12v12h-12zM600 864h12v12h-12zM624 864h12v12h-12zM696 864h12v12h-12zM708 864h12v12h-12zM720 864h12v12h-12zM744 864h12v12h-12zM756 864h12v12h-12zM768 864h12v12h-12zM780 864h12v12h-12zM804 864h12v12h-12zM816 864h12v12h-12zM828 864h12v12h-12zM840 864h12v12h-12zM864 864h12v12h-12zM888 864h12v12h-12zM900 864h12v12h-12zM912 864h12v12h-12zM120 876h12v12h-12zM144 876h12v12h-12zM156 876h12v12h-12zM168 876h12v12h-12zM180 876h12v12h-12zM204 876h12v12h-12zM252 876h12v12h-12zM264 876h12v12h-12zM288 876h12v12h-12zM300 876h12v12h-12zM312 876h12v12h-12zM360 876h12v12h-12zM384 876h12v12h-12zM420 876h12v12h-12zM432 876h12v12h-12zM444 876h12v12h-12zM456 876h12v12h-12zM468 876h12v12h-12zM492 876h12v12h-12zM528 876h12v12h-12zM540 876h12v12h-12zM576 876h12v12h-12zM624 876h12v12h-12zM636 876h12v12h-12zM660 876h12v12h-12zM672 876h12v12h-12zM684 876h12v12h-12zM708 876h12v12h-12zM744 876h12v12h-12zM828 876h12v12h-12zM840 876h12v12h-12zM888 876h12v12h-12zM900 876h12v12h-12zM936 876h12v12h-12zM120 888h12v12h-12zM144 888h12v12h-12zM156 888h12v12h-12zM168 888h12v12h-12zM192 888h12v12h-12zM204 888h12v12h-12zM216 888h12v12h-12zM264 888h12v12h-12zM288 888h12v12h-12zM300 888h12v12h-12zM312 888h12v12h-12zM324 888h12v12h-12zM336 888h12v12h-12zM348 888h12v12h-12zM360 888h12v12h-12zM384 888h12v12h-12zM408 888h12v12h-12zM432 888h12v12h-12zM456 888h12v12h-12zM480 888h12v12h-12zM516 888h12v12h-12zM528 888h12v12h-12zM540 888h12v12h-12zM576 888h12v12h-12zM588 888h12v12h-12zM600 888h12v12h-12zM612 888h12v12h-12zM624 888h12v12h-12zM636 888h12v12h-12zM720 888h12v12h-12zM816 888h12v12h-12zM840 888h12v12h-12zM852 888h12v12h-12zM864 888h12v12h-12zM876 888h12v12h-12zM888 888h12v12h-12zM912 888h12v12h-12zM924 888h12v12h-12zM120 900h12v12h-12zM132 900h12v12h-12zM192 900h12v12h-12zM216 900h12v12h-12zM240 900h12v12h-12zM252 900h12v12h-12zM264 900h12v12h-12zM276 900h12v12h-12zM336 900h12v12h-12zM348 900h12v12h-12zM372 900h12v12h-12zM384 900h12v12h-12zM396 900h12v12h-12zM432 900h12v12h-12zM444 900h12v12h-12zM456 900h12v12h-12zM528 900h12v12h-12zM540 900h12v12h-12zM564 900h12v12h-12zM624 900h12v12h-12zM648 900h12v12h-12zM684 900h12v12h-12zM696 900h12v12h-12zM768 900h12v12h-12zM840 900h12v12h-12zM864 900h12v12h-12zM888 900h12v12h-12zM900 900h12v12h-12zM924 900h12v12h-12zM120 912h12v12h-12zM144 912h12v12h-12zM180 912h12v12h-12zM192 912h12v12h-12zM204 912h12v12h-12zM264 912h12v12h-12zM276 912h12v12h-12zM288 912h12v12h-12zM324 912h12v12h-12zM336 912h12v12h-12zM384 912h12v12h-12zM396 912h12v12h-12zM408 912h12v12h-12zM420 912h12v12h-12zM456 912h12v12h-12zM480 912h12v12h-12zM492 912h12v12h-12zM504 912h12v12h-12zM516 912h12v12h-12zM528 912h12v12h-12zM540 912h12v12h-12zM564 912h12v12h-12zM576 912h12v12h-12zM588 912h12v12h-12zM660 912h12v12h-12zM756 912h12v12h-12zM780 912h12v12h-12zM816 912h12v12h-12zM828 912h12v12h-12zM852 912h12v12h-12zM864 912h12v12h-12zM888 912h12v12h-12zM900 912h12v12h-12zM924 912h12v12h-12zM132 924h12v12h-12zM144 924h12v12h-12zM156 924h12v12h-12zM204 924h12v12h-12zM216 924h12v12h-12zM252 924h12v12h-12zM288 924h12v12h-12zM312 924h12v12h-12zM324 924h12v12h-12zM336 924h12v12h-12zM348 924h12v12h-12zM360 924h12v12h-12zM456 924h12v12h-12zM468 924h12v12h-12zM480 924h12v12h-12zM492 924h12v12h-12zM516 924h12v12h-12zM528 924h12v12h-12zM540 924h12v12h-12zM552 924h12v12h-12zM648 924h12v12h-12zM660 924h12v12h-12zM672 924h12v12h-12zM696 924h12v12h-12zM732 924h12v12h-12zM768 924h12v12h-12zM804 924h12v12h-12zM816 924h12v12h-12zM828 924h12v12h-12zM840 924h12v12h-12zM876 924h12v12h-12zM888 924h12v12h-12zM900 924h12v12h-12zM924 924h12v12h-12zM120 936h12v12h-12zM132 936h12v12h-12zM156 936h12v12h-12zM168 936h12v12h-12zM240 936h12v12h-12zM252 936h12v12h-12zM264 936h12v12h-12zM288 936h12v12h-12zM336 936h12v12h-12zM348 936h12v12h-12zM360 936h12v12h-12zM384 936h12v12h-12zM396 936h12v12h-12zM408 936h12v12h-12zM420 936h12v12h-12zM432 936h12v12h-12zM468 936h12v12h-12zM528 936h12v12h-12zM540 936h12v12h-12zM552 936h12v12h-12zM588 936h12v12h-12zM600 936h12v12h-12zM624 936h12v12h-12zM636 936h12v12h-12zM696 936h12v12h-12zM720 936h12v12h-12zM732 936h12v12h-12zM768 936h12v12h-12zM780 936h12v12h-12zM792 936h12v12h-12zM816 936h12v12h-12zM828 936h12v12h-12zM852 936h12v12h-12zM876 936h12v12h-12zM900 936h12v12h-12zM24 24v84h84V24H24zm72 72H36V36h60v60zM864 24v84h84V24h-84zm72 72h-60V36h60v60zM24 864v84h84v-84H24zm72 72H36v-60h60v60z"/><path d="M48 48h36v36H48zM888 48h36v36h-36zM48 888h36v36H48z"/></svg>